<?xml version="1.0" encoding="UTF-8"?>
<svg width="1024" height="1024" viewBox="0 0 1024 1024" xmlns="http://www.w3.org/2000/svg">
  <rect width="1024" height="1024" fill="#FFFFFF"/>
  <path fill="#0A0A0A" d="M431.35 327.77L542.12 631L632.12 400.46Q650.12 354.77 658.42 330.54Q666.73 306.31 669.50 293.85Q672.27 281.38 672.27 271.69Q672.27 255.08 659.81 249.88Q647.35 244.69 609.96 244.69L609.96 217L806.58 217L806.58 244.69Q749.12 244.69 726.96 300.77L544.88 757L493.65 757L328.19 352.69Q310.19 309.08 295.31 285.88Q280.42 262.69 262.42 254.04Q244.42 245.38 217.42 245.38L217.42 217L479.12 217L479.12 245.38Q443.12 246.08 430.31 251.96Q417.50 257.85 417.50 273.08Q417.50 282.08 420.96 295.58Q424.42 309.08 431.35 327.77"/>
  <rect x="412.00" y="793.00" width="200" height="14" fill="#C84B31"/>
</svg>
