<?xml version="1.0" encoding="UTF-8"?>
<svg width="1024" height="1024" viewBox="0 0 1024 1024" xmlns="http://www.w3.org/2000/svg">
  <rect width="1024" height="1024" fill="#0F0F10"/>
  <path fill="#F0EDE6" d="M461.22 393.74L530.96 584.67L587.63 439.51Q598.96 410.74 604.19 395.49Q609.42 380.23 611.17 372.38Q612.91 364.54 612.91 358.44Q612.91 347.97 605.06 344.71Q597.22 341.44 573.68 341.44L573.68 324L697.47 324L697.47 341.44Q661.29 341.44 647.35 376.74L532.71 664L500.45 664L396.27 409.44Q384.94 381.97 375.56 367.37Q366.19 352.77 354.86 347.32Q343.53 341.87 326.53 341.87L326.53 324L491.29 324L491.29 341.87Q468.63 342.31 460.56 346.01Q452.50 349.72 452.50 359.31Q452.50 364.97 454.68 373.47Q456.86 381.97 461.22 393.74"/>
  <rect x="446.00" y="690.00" width="132" height="10" fill="#E66B4D"/>
</svg>
